<?xml version="1.0" encoding="UTF-8" standalone="no"?>
<svg
   xmlns:dc="http://purl.org/dc/elements/1.1/"
   xmlns:cc="http://creativecommons.org/ns#"
   xmlns:rdf="http://www.w3.org/1999/02/22-rdf-syntax-ns#"
   xmlns:svg="http://www.w3.org/2000/svg"
   xmlns="http://www.w3.org/2000/svg"
   xmlns:sodipodi="http://sodipodi.sourceforge.net/DTD/sodipodi-0.dtd"
   xmlns:inkscape="http://www.inkscape.org/namespaces/inkscape"
   width="24"
   height="24"
   viewBox="0 0 24 24"
   version="1.1"
   id="svg6"
   sodipodi:docname="hide-password.svg"
   inkscape:version="0.92.4 (5da689c313, 2019-01-14)">
  <metadata
     id="metadata12">
    <rdf:RDF>
      <cc:Work
         rdf:about="">
        <dc:format>image/svg+xml</dc:format>
        <dc:type
           rdf:resource="http://purl.org/dc/dcmitype/StillImage" />
      </cc:Work>
    </rdf:RDF>
  </metadata>
  <defs
     id="defs10" />
  <sodipodi:namedview
     pagecolor="#ffffff"
     bordercolor="#666666"
     borderopacity="1"
     objecttolerance="10"
     gridtolerance="10"
     guidetolerance="10"
     inkscape:pageopacity="0"
     inkscape:pageshadow="2"
     inkscape:window-width="1920"
     inkscape:window-height="1031"
     id="namedview8"
     showgrid="false"
     inkscape:zoom="3.4766083"
     inkscape:cx="-52.816815"
     inkscape:cy="-12.749797"
     inkscape:window-x="1440"
     inkscape:window-y="20"
     inkscape:window-maximized="1"
     inkscape:current-layer="svg6" />
  <path
     fill="none"
     d="M0 0h24v24H0V0z"
     id="path2" />
  <path
     d="M 12 4.5 C 6.9999999 4.5 2.73 7.61 1 12 C 1.5603938 13.42204 2.3899636 14.707606 3.421875 15.798828 L 7.2773438 13.572266 C 7.1114567 13.075023 7 12.552778 7 12 C 7 9.24 9.24 7 12 7 C 13.487213 7 14.808469 7.6636303 15.724609 8.6953125 L 18.996094 6.8066406 C 17.036925 5.3608865 14.621185 4.5 12 4.5 z M 20.578125 8.2011719 L 16.722656 10.427734 C 16.888543 10.924977 17 11.447222 17 12 C 17 14.76 14.76 17 12 17 C 10.512787 17 9.1915309 16.33637 8.2753906 15.304688 L 5.0039062 17.193359 C 6.9630752 18.639114 9.3788149 19.5 12 19.5 C 17 19.5 21.27 16.39 23 12 C 22.439606 10.57796 21.610036 9.2923938 20.578125 8.2011719 z M 12 9 C 10.34 9 9 10.34 9 12 C 9 12.187419 9.0219931 12.369082 9.0546875 12.546875 L 13.939453 9.7265625 C 13.41577 9.2797536 12.744271 9 12 9 z M 14.945312 11.453125 L 10.060547 14.273438 C 10.58423 14.720246 11.255729 15 12 15 C 13.66 15 15 13.66 15 12 C 15 11.812581 14.978007 11.630918 14.945312 11.453125 z "
     id="path4" />
</svg>
