<?xml version="1.0" encoding="UTF-8" standalone="no"?>
<svg
   xmlns:dc="http://purl.org/dc/elements/1.1/"
   xmlns:cc="http://creativecommons.org/ns#"
   xmlns:rdf="http://www.w3.org/1999/02/22-rdf-syntax-ns#"
   xmlns:svg="http://www.w3.org/2000/svg"
   xmlns="http://www.w3.org/2000/svg"
   xmlns:xlink="http://www.w3.org/1999/xlink"
   xmlns:sodipodi="http://sodipodi.sourceforge.net/DTD/sodipodi-0.dtd"
   xmlns:inkscape="http://www.inkscape.org/namespaces/inkscape"
   width="48"
   height="48"
   viewBox="0 0 48 48"
   version="1.1"
   id="svg10"
   sodipodi:docname="notifications-active.svg"
   inkscape:version="0.92.4 (5da689c313, 2019-01-14)">
  <metadata
     id="metadata14">
    <rdf:RDF>
      <cc:Work
         rdf:about="">
        <dc:format>image/svg+xml</dc:format>
        <dc:type
           rdf:resource="http://purl.org/dc/dcmitype/StillImage" />
        <dc:title></dc:title>
      </cc:Work>
    </rdf:RDF>
  </metadata>
  <sodipodi:namedview
     pagecolor="#ffffff"
     bordercolor="#666666"
     borderopacity="1"
     objecttolerance="10"
     gridtolerance="10"
     guidetolerance="10"
     inkscape:pageopacity="0"
     inkscape:pageshadow="2"
     inkscape:window-width="1920"
     inkscape:window-height="1031"
     id="namedview12"
     showgrid="false"
     inkscape:zoom="4.9166667"
     inkscape:cx="24"
     inkscape:cy="24"
     inkscape:window-x="1440"
     inkscape:window-y="20"
     inkscape:window-maximized="1"
     inkscape:current-layer="svg10"
     inkscape:pagecheckerboard="true" />
  <defs
     id="defs3">
    <path
       id="a"
       d="M0 0h48v48H0z" />
  </defs>
  <clipPath
     id="b">
    <use
       xlink:href="#a"
       overflow="visible"
       id="use5" />
  </clipPath>
  <path
     clip-path="url(#b)"
     fill="#010101"
     d="M15.16 8.16L12.3 5.3C7.51 8.95 4.35 14.59 4.05 21h4c.31-5.3 3.04-9.94 7.11-12.84zM39.95 21h4c-.3-6.41-3.46-12.05-8.25-15.7l-2.85 2.85c4.06 2.91 6.79 7.55 7.1 12.85zM36 22c0-6.15-3.27-11.28-9-12.64V8c0-1.66-1.34-3-3-3s-3 1.34-3 3v1.36c-5.73 1.36-9 6.49-9 12.64v10l-4 4v2h32v-2l-4-4V22zM24 44c.28 0 .55-.03.81-.08 1.3-.27 2.37-1.17 2.88-2.36.2-.48.31-1 .31-1.56h-8c0 2.21 1.79 4 4 4z"
     id="path8" />
</svg>
